<svg width="265" height="384" viewBox="0 0 265 384" fill="none" xmlns="http://www.w3.org/2000/svg">
<rect width="265" height="384" fill="#123D4B"/>
<path d="M141.625 173.75H115.375C113.883 173.75 112.452 174.343 111.398 175.398C110.343 176.452 109.75 177.883 109.75 179.375V205.625C109.75 207.117 110.343 208.548 111.398 209.602C112.452 210.657 113.883 211.25 115.375 211.25H141.625C141.933 211.246 142.241 211.214 142.544 211.156L143.106 211.025H143.238H143.331L144.025 210.763L144.269 210.631C144.456 210.519 144.662 210.425 144.85 210.294C145.1 210.11 145.338 209.909 145.562 209.694L145.694 209.525C145.878 209.338 146.047 209.138 146.2 208.925L146.369 208.681C146.5 208.472 146.613 208.253 146.706 208.025C146.758 207.935 146.802 207.841 146.838 207.744C146.931 207.519 146.987 207.275 147.062 207.031V206.75C147.169 206.384 147.232 206.006 147.25 205.625V179.375C147.25 177.883 146.657 176.452 145.602 175.398C144.548 174.343 143.117 173.75 141.625 173.75ZM115.375 207.5C114.878 207.5 114.401 207.302 114.049 206.951C113.698 206.599 113.5 206.122 113.5 205.625V197.544L119.669 191.356C119.843 191.181 120.05 191.041 120.279 190.946C120.507 190.851 120.752 190.802 121 190.802C121.248 190.802 121.493 190.851 121.721 190.946C121.95 191.041 122.157 191.181 122.331 191.356L138.456 207.5H115.375ZM143.5 205.625C143.498 205.856 143.454 206.085 143.369 206.3C143.326 206.391 143.276 206.479 143.219 206.562C143.169 206.642 143.112 206.717 143.05 206.788L133.019 196.756L134.669 195.106C134.843 194.931 135.05 194.791 135.279 194.696C135.507 194.601 135.752 194.552 136 194.552C136.248 194.552 136.493 194.601 136.721 194.696C136.95 194.791 137.157 194.931 137.331 195.106L143.5 201.294V205.625ZM143.5 195.987L139.975 192.5C138.902 191.482 137.479 190.914 136 190.914C134.521 190.914 133.098 191.482 132.025 192.5L130.375 194.15L124.975 188.75C123.902 187.732 122.479 187.164 121 187.164C119.521 187.164 118.098 187.732 117.025 188.75L113.5 192.237V179.375C113.5 178.878 113.698 178.401 114.049 178.049C114.401 177.698 114.878 177.5 115.375 177.5H141.625C142.122 177.5 142.599 177.698 142.951 178.049C143.302 178.401 143.5 178.878 143.5 179.375V195.987Z" fill="#A0AEB7"/>
</svg>
