<svg width="176" height="32" viewBox="0 0 176 32" fill="none" xmlns="http://www.w3.org/2000/svg">
<rect x="144" width="32" height="32" rx="16" fill="#A0AEB7"/>
<path fill-rule="evenodd" clip-rule="evenodd" d="M170.177 11.023C170.325 10.5286 170.177 10.1652 169.471 10.1652H167.137C166.544 10.1652 166.271 10.4791 166.122 10.8253C166.122 10.8253 164.935 13.7182 163.254 15.5973C162.71 16.1412 162.463 16.3141 162.166 16.3141C162.018 16.3141 161.803 16.1412 161.803 15.6468V11.023C161.803 10.4296 161.631 10.1652 161.136 10.1652H157.468C157.098 10.1652 156.875 10.4406 156.875 10.7016C156.875 11.2643 157.715 11.3939 157.802 12.9763V16.4133C157.802 17.1668 157.666 17.3035 157.369 17.3035C156.578 17.3035 154.653 14.3975 153.512 11.0725C153.288 10.4262 153.064 10.1652 152.467 10.1652H150.133C149.467 10.1652 149.333 10.4791 149.333 10.8253C149.333 11.4435 150.125 14.5095 153.017 18.5645C154.946 21.3334 157.663 22.8348 160.136 22.8348C161.619 22.8348 161.803 22.5014 161.803 21.9271V19.8341C161.803 19.1673 161.943 19.0342 162.413 19.0342C162.759 19.0342 163.353 19.2073 164.738 20.5424C166.32 22.1246 166.581 22.8348 167.471 22.8348H169.805C170.472 22.8348 170.805 22.5014 170.613 21.8434C170.402 21.1876 169.647 20.2363 168.644 19.1084C168.1 18.4654 167.284 17.7731 167.037 17.427C166.691 16.9819 166.79 16.7842 167.037 16.3888C167.037 16.3888 169.88 12.3832 170.177 11.0232V11.023Z" fill="#123D4B"/>
<rect x="96" width="32" height="32" rx="16" fill="#A0AEB7"/>
<path fill-rule="evenodd" clip-rule="evenodd" d="M119.825 9.42675C120.682 9.65739 121.357 10.3328 121.588 11.1895C122.016 12.7546 122 16.0165 122 16.0165C122 16.0165 122 19.262 121.588 20.827C121.357 21.6837 120.682 22.3591 119.825 22.5898C118.26 23.0016 112 23.0016 112 23.0016C112 23.0016 105.756 23.0016 104.174 22.5733C103.318 22.3427 102.642 21.6672 102.412 20.8106C102 19.262 102 16 102 16C102 16 102 12.7546 102.412 11.1895C102.642 10.3328 103.334 9.64091 104.174 9.41027C105.74 8.99841 112 8.99841 112 8.99841C112 8.99841 118.26 8.99841 119.825 9.42675ZM115.212 16L110.006 18.9983V13.0016L115.212 16Z" fill="#123D4B"/>
<rect x="48" width="32" height="32" rx="16" fill="#A0AEB7"/>
<path d="M60.6677 16C60.6677 14.1591 62.1596 12.6664 64.0005 12.6664C65.8414 12.6664 67.3341 14.1591 67.3341 16C67.3341 17.8409 65.8414 19.3336 64.0005 19.3336C62.1596 19.3336 60.6677 17.8409 60.6677 16ZM58.8656 16C58.8656 18.836 61.1645 21.1349 64.0005 21.1349C66.8365 21.1349 69.1354 18.836 69.1354 16C69.1354 13.164 66.8365 10.8651 64.0005 10.8651C61.1645 10.8651 58.8656 13.164 58.8656 16ZM68.1386 10.6615C68.1386 10.8989 68.2088 11.1309 68.3406 11.3283C68.4724 11.5257 68.6597 11.6796 68.879 11.7705C69.0982 11.8614 69.3395 11.8852 69.5723 11.839C69.8051 11.7928 70.0189 11.6786 70.1868 11.5109C70.3547 11.3431 70.4691 11.1293 70.5155 10.8966C70.5619 10.6638 70.5382 10.4225 70.4475 10.2032C70.3567 9.98392 70.203 9.79644 70.0057 9.6645C69.8084 9.53257 69.5765 9.4621 69.3391 9.462H69.3386C69.0205 9.46215 68.7155 9.58856 68.4905 9.81347C68.2655 10.0384 68.1389 10.3434 68.1386 10.6615ZM59.9605 24.1398C58.9855 24.0954 58.4556 23.933 58.1034 23.7958C57.6366 23.614 57.3034 23.3975 56.9532 23.0478C56.603 22.698 56.3862 22.3652 56.2052 21.8983C56.0679 21.5463 55.9055 21.0162 55.8612 20.0413C55.8127 18.9872 55.803 18.6706 55.803 16.0001C55.803 13.3296 55.8135 13.0138 55.8612 11.9589C55.9056 10.9839 56.0692 10.4549 56.2052 10.1018C56.387 9.63496 56.6034 9.30184 56.9532 8.9516C57.303 8.60136 57.6358 8.38456 58.1034 8.2036C58.4554 8.06632 58.9855 7.90392 59.9605 7.8596C61.0146 7.81112 61.3312 7.80144 64.0005 7.80144C66.6698 7.80144 66.9867 7.81192 68.0417 7.8596C69.0166 7.904 69.5457 8.0676 69.8987 8.2036C70.3656 8.38456 70.6987 8.60184 71.049 8.9516C71.3992 9.30136 71.6152 9.63496 71.797 10.1018C71.9342 10.4538 72.0966 10.9839 72.141 11.9589C72.1894 13.0138 72.1991 13.3296 72.1991 16.0001C72.1991 18.6706 72.1894 18.9863 72.141 20.0413C72.0966 21.0162 71.9334 21.5462 71.797 21.8983C71.6152 22.3652 71.3987 22.6983 71.049 23.0478C70.6992 23.3972 70.3656 23.614 69.8987 23.7958C69.5467 23.933 69.0166 24.0954 68.0417 24.1398C66.9876 24.1882 66.671 24.1979 64.0005 24.1979C61.33 24.1979 61.0142 24.1882 59.9605 24.1398ZM59.8777 6.06056C58.8131 6.10904 58.0857 6.27784 57.4504 6.52504C56.7925 6.78032 56.2355 7.1228 55.679 7.67848C55.1224 8.23416 54.7808 8.792 54.5255 9.44992C54.2783 10.0856 54.1095 10.8126 54.061 11.8772C54.0118 12.9434 54.0005 13.2843 54.0005 16C54.0005 18.7157 54.0118 19.0566 54.061 20.1228C54.1095 21.1874 54.2783 21.9144 54.5255 22.5501C54.7808 23.2076 55.1225 23.7661 55.679 24.3215C56.2354 24.877 56.7925 25.219 57.4504 25.475C58.0869 25.7222 58.8131 25.891 59.8777 25.9394C60.9445 25.9879 61.2848 26 64.0005 26C66.7162 26 67.057 25.9887 68.1233 25.9394C69.1879 25.891 69.9149 25.7222 70.5506 25.475C71.2081 25.219 71.7654 24.8772 72.322 24.3215C72.8786 23.7658 73.2194 23.2076 73.4754 22.5501C73.7226 21.9144 73.8922 21.1874 73.9399 20.1228C73.9884 19.0558 73.9997 18.7157 73.9997 16C73.9997 13.2843 73.9884 12.9434 73.9399 11.8772C73.8914 10.8126 73.7226 10.0852 73.4754 9.44992C73.2194 8.7924 72.8777 8.23504 72.322 7.67848C71.7663 7.12192 71.2081 6.78032 70.5514 6.52504C69.9149 6.27784 69.1878 6.10824 68.1241 6.06056C67.0578 6.01208 66.717 6 64.0013 6C61.2856 6 60.9445 6.01128 59.8777 6.06056Z" fill="#123D4B"/>
<rect width="32" height="32" rx="16" fill="#A0AEB7"/>
<path d="M17.0683 26.6666V16.9354H20.3347L20.8237 13.143H17.0683V10.7217C17.0683 9.62376 17.3733 8.87543 18.9479 8.87543L20.9561 8.87451V5.48265C20.6086 5.4366 19.4166 5.33337 18.0298 5.33337C15.1344 5.33337 13.1521 7.10064 13.1521 10.3463V13.1432H9.87732V16.9355H13.152V26.6667L17.0683 26.6666Z" fill="#123D4B"/>
</svg>
